{"title":"DJ CoNE - Ataque Ochentoso Vol 1","uid":3377638,"size":114911267,"categoryP":"audio","categoryS":"music","magnet":"?xt=urn:btih:05fbb9277e8942eaf1528558abaa924aeac242b8&amp;dn=DJ+CoNE+-+Ataque+Ochentoso+Vol+1&amp;tr=udp%3A%2F%2Ftracker.openbittorrent.com%3A80&amp;tr=udp%3A%2F%2Fopen.demonii.com%3A1337&amp;tr=udp%3A%2F%2Ftracker.coppersurfer.tk%3A6969&amp;tr=udp%3A%2F%2Fexodus.desync.com%3A6969","seeders":0,"leechers":1,"uploader":"benitomdq","files":2,"time":1125597877,"description":"PERFORMER  DJ CoNE \nTITLE  Ataque Ochentoso Vol 1 \n\n  TRACK 01 AUDIO\n    TITLE  Atahualpa - Ultimo imperio (Intro) \n    INDEX 01 00:00:00\n  TRACK 02 AUDIO\n    TITLE  FPI Project - Rich in paradise (Vocal remix) \n    INDEX 01 00:36:74\n  TRACK 03 AUDIO\n    TITLE  Jinny - Keep warm (Extended mix) \n    INDEX 01 06:08:04\n  TRACK 04 AUDIO\n    TITLE  Kraze - The party (Club mix) \n    INDEX 01 09:44:18\n  TRACK 05 AUDIO\n    TITLE  ICE MC - Cinema (The Oscar mix) \n    INDEX 01 12:48:01\n  TRACK 06 AUDIO\n    TITLE  MC Miker G - Show'm bass (Single version) \n    INDEX 01 16:48:64\n  TRACK 07 AUDIO\n    TITLE  Cappella - Get out of my case (Original mix) \n    INDEX 01 20:10:53\n  TRACK 08 AUDIO\n    TITLE  Inner City - Big fun (Magic Juan's mix) \n    INDEX 01 25:43:24\n  TRACK 09 AUDIO\n    TITLE  101 - Just as long as I got you (Ro Maron mix) \n    INDEX 01 29:20:73\n  TRACK 10 AUDIO\n    TITLE  Mr Lee - Get busy (Club mix) \n    INDEX 01 32:39:54\n  TRACK 11 AUDIO\n    TITLE  49ers - Touch me (Sexual version) \n    INDEX 01 36:33:51\n  TRACK 12 AUDIO\n    TITLE  Isidro Alfaro Gutierrez - Ni&amp;ntilde;a de pelo negro (Extended version) \n    INDEX 01 40:51:16\n  TRACK 13 AUDIO\n    TITLE  Bravo &amp; DJs - Difacil rap (Remix) \n    INDEX 01 46:26:53\n  TRACK 14 AUDIO\n    TITLE  Don Pablo's Animals - Venus (The piano mix) \n    INDEX 01 49:08:73\n  TRACK 15 AUDIO\n    TITLE  MC SAR &amp; The Real McCoy - It's on you (Extended mix) \n    INDEX 01 52:02:22\n  TRACK 16 AUDIO\n    TITLE  Cappella - House energy revenge (12' remix) \n    INDEX 01 55:09:25\n  TRACK 17 AUDIO\n    TITLE  Technotronic - Megamix (Club version) \n    INDEX 01 57:53:02\n  TRACK 18 AUDIO\n    TITLE  Double Dee - Found love (International mix) \n    INDEX 01 63:35:30\n  TRACK 19 AUDIO\n    TITLE  Bizz Nizz - Get into trance (Euro 7') \n    INDEX 01 66:03:11\n  TRACK 20 AUDIO\n    TITLE  Plaza - Oh oh (Dance version) \n    INDEX 01 69:02:62\n  TRACK 21 AUDIO\n    TITLE  Dead or Alive - You spin me round (Murder mix) \n    INDEX 01 72:58:26\n","torrent":{"xt":"urn:btih:05fbb9277e8942eaf1528558abaa924aeac242b8","amp;dn":"DJ+CoNE+-+Ataque+Ochentoso+Vol+1","amp;tr":["udp%3A%2F%2Ftracker.openbittorrent.com%3A80","udp%3A%2F%2Fopen.demonii.com%3A1337","udp%3A%2F%2Ftracker.coppersurfer.tk%3A6969","udp%3A%2F%2Fexodus.desync.com%3A6969"],"infoHash":"05fbb9277e8942eaf1528558abaa924aeac242b8","infoHashBuffer":{"type":"Buffer","data":[5,251,185,39,126,137,66,234,241,82,133,88,171,170,146,74,234,194,66,184]},"announce":[],"urlList":[]}}